<svg width="16" height="4" viewBox="0 0 16 4" fill="none" xmlns="http://www.w3.org/2000/svg">
<mask id="mask0_13_312" style="mask-type:alpha" maskUnits="userSpaceOnUse" x="0" y="0" width="16" height="4">
<rect width="16" height="4" fill="#D9D9D9"/>
</mask>
<g mask="url(#mask0_13_312)">
<path d="M2.23078 3.49998C1.81829 3.49998 1.46518 3.3531 1.17143 3.05935C0.877692 2.7656 0.730825 2.41248 0.730825 2C0.730825 1.58752 0.877692 1.2344 1.17143 0.94065C1.46518 0.6469 1.81829 0.500025 2.23078 0.500025C2.64328 0.500025 2.99639 0.6469 3.29013 0.94065C3.58388 1.2344 3.73075 1.58752 3.73075 2C3.73075 2.41248 3.58388 2.7656 3.29013 3.05935C2.99639 3.3531 2.64328 3.49998 2.23078 3.49998ZM8 3.49998C7.58752 3.49998 7.2344 3.3531 6.94065 3.05935C6.6469 2.7656 6.50003 2.41248 6.50003 2C6.50003 1.58752 6.6469 1.2344 6.94065 0.94065C7.2344 0.6469 7.58752 0.500025 8 0.500025C8.41248 0.500025 8.7656 0.6469 9.05935 0.94065C9.3531 1.2344 9.49998 1.58752 9.49998 2C9.49998 2.41248 9.3531 2.7656 9.05935 3.05935C8.7656 3.3531 8.41248 3.49998 8 3.49998ZM13.7692 3.49998C13.3567 3.49998 13.0036 3.3531 12.7099 3.05935C12.4161 2.7656 12.2693 2.41248 12.2693 2C12.2693 1.58752 12.4161 1.2344 12.7099 0.94065C13.0036 0.6469 13.3567 0.500025 13.7692 0.500025C14.1817 0.500025 14.5348 0.6469 14.8286 0.94065C15.1223 1.2344 15.2692 1.58752 15.2692 2C15.2692 2.41248 15.1223 2.7656 14.8286 3.05935C14.5348 3.3531 14.1817 3.49998 13.7692 3.49998Z" fill="white"/>
</g>
</svg>
