<svg width="16" height="16" viewBox="0 0 16 16" fill="none" xmlns="http://www.w3.org/2000/svg">
<mask id="mask0_41_444" style="mask-type:alpha" maskUnits="userSpaceOnUse" x="0" y="0" width="16" height="16">
<rect width="16" height="16" fill="#D9D9D9"/>
</mask>
<g mask="url(#mask0_41_444)">
<path d="M1.67238 15.8615C1.24311 15.8615 0.880143 15.7132 0.583476 15.4165C0.286793 15.1199 0.138451 14.7569 0.138451 14.3276V1.67238C0.138451 1.24311 0.286793 0.880141 0.583476 0.583475C0.880143 0.286791 1.24311 0.138451 1.67238 0.138451H14.3276C14.7569 0.138451 15.1199 0.286791 15.4165 0.583475C15.7132 0.880141 15.8615 1.24311 15.8615 1.67238V14.3276C15.8615 14.7569 15.7132 15.1199 15.4165 15.4165C15.1199 15.7132 14.7569 15.8615 14.3276 15.8615H1.67238ZM1.67693 14.9385H5.075V10.925H1.06155V14.3231C1.06155 14.5026 1.11924 14.65 1.23463 14.7654C1.35001 14.8808 1.49744 14.9385 1.67693 14.9385ZM5.99808 14.9385H10.0019V10.925H5.99808V14.9385ZM10.925 14.9385H14.3231C14.5026 14.9385 14.65 14.8808 14.7654 14.7654C14.8808 14.65 14.9385 14.5026 14.9385 14.3231V10.925H10.925V14.9385ZM1.06155 10.0019H5.075V5.99807H1.06155V10.0019ZM5.99808 10.0019H10.0019V5.99807H5.99808V10.0019ZM10.925 10.0019H14.9385V5.99807H10.925V10.0019ZM1.06155 5.075H5.075V1.06155H1.67693C1.49744 1.06155 1.35001 1.11924 1.23463 1.23463C1.11924 1.35001 1.06155 1.49744 1.06155 1.67693V5.075ZM5.99808 5.075H10.0019V1.06155H5.99808V5.075ZM10.925 5.075H14.9385V1.67693C14.9385 1.49744 14.8808 1.35001 14.7654 1.23463C14.65 1.11924 14.5026 1.06155 14.3231 1.06155H10.925V5.075Z" fill="white"/>
</g>
</svg>
