<svg width="18" height="18" viewBox="0 0 18 18" fill="none" xmlns="http://www.w3.org/2000/svg">
<mask id="mask0_41_488" style="mask-type:alpha" maskUnits="userSpaceOnUse" x="0" y="0" width="18" height="18">
<rect width="18" height="18" fill="#D9D9D9"/>
</mask>
<g mask="url(#mask0_41_488)">
<path d="M2.23076 0.661766L3.60576 4.2353H6.35576L4.98076 0.661766H6.81409L8.18909 4.2353H10.9391L9.56409 0.661766H11.3974L12.7724 4.2353H15.5224L14.1474 0.661766H15.7692C16.1911 0.661766 16.5434 0.845406 16.826 1.21269C17.1087 1.57996 17.25 2.03772 17.25 2.58596V15.414C17.25 15.9623 17.1087 16.42 16.826 16.7873C16.5434 17.1546 16.1911 17.3382 15.7692 17.3382H2.23076C1.80886 17.3382 1.4566 17.1546 1.17396 16.7873C0.891319 16.42 0.75 15.9623 0.75 15.414V2.58596C0.75 2.03772 0.891319 1.57996 1.17396 1.21269C1.4566 0.845406 1.80886 0.661766 2.23076 0.661766ZM1.66667 5.42647V15.414C1.66667 15.6278 1.71955 15.8035 1.82532 15.9409C1.93109 16.0783 2.06623 16.1471 2.23076 16.1471H15.7692C15.9338 16.1471 16.0689 16.0783 16.1747 15.9409C16.2804 15.8035 16.3333 15.6278 16.3333 15.414V5.42647H1.66667Z" fill="white"/>
</g>
<mask id="mask1_41_488" style="mask-type:alpha" maskUnits="userSpaceOnUse" x="6" y="7" width="8" height="8">
<rect x="6" y="7" width="8" height="8" fill="#D9D9D9"/>
</mask>
<g mask="url(#mask1_41_488)">
<path d="M7.78922 14.5277C7.57383 14.6703 7.35512 14.6777 7.13308 14.55C6.91103 14.4223 6.8 14.2292 6.8 13.9708V8.02922C6.8 7.77077 6.91103 7.57769 7.13308 7.45C7.35512 7.32231 7.57383 7.32974 7.78922 7.4723L12.4631 10.4585C12.6621 10.5877 12.7615 10.7682 12.7615 11C12.7615 11.2318 12.6621 11.4123 12.4631 11.5415L7.78922 14.5277Z" fill="white"/>
</g>
</svg>
