<svg width="18" height="17" viewBox="0 0 18 17" fill="none" xmlns="http://www.w3.org/2000/svg">
<path d="M1.74999 16.9583C1.25139 16.9583 0.83507 16.7913 0.501042 16.4573C0.167014 16.1233 0 15.7069 0 15.2083V3.41665C0 2.91805 0.167014 2.50173 0.501042 2.1677C0.83507 1.83367 1.25139 1.66666 1.74999 1.66666H6.84166C7.35393 1.66666 7.22222 1.68993 7.58333 1.25103C7.94444 0.812157 8.09167 0 8.66667 0C9.24166 0 9.38889 0.812157 9.75 1.25103C10.1111 1.68993 9.87586 1.66666 10.4917 1.66666H15.5833C16.0819 1.66666 16.4983 1.83367 16.8323 2.1677C17.1663 2.50173 17.3333 2.91805 17.3333 3.41665V15.2083C17.3333 15.7069 17.1663 16.1233 16.8323 16.4573C16.4983 16.7913 16.0819 16.9583 15.5833 16.9583H1.74999ZM1.08333 15.0458C2.05833 14.0889 1.95903 12.0923 3.25 11.5416C4.54097 10.991 7.16806 11 8.66667 11C10.1653 11 12.7924 10.991 14.0833 11.5416C15.3743 12.0923 15.275 14.0889 16.25 15.0458V3.41665C16.25 3.25 16.1806 3.09722 16.0417 2.95832C15.9028 2.81944 15.75 2.74999 15.5833 2.74999C15.5833 2.74999 10 2.74999 9.75 2.74999C9.5 2.74999 9 1.5 8.66667 1.5C8.33333 1.5 8 2.74999 7.58333 2.74999C7.16667 2.74999 4.38603 2.74999 1.74999 2.74999C1.58334 2.74999 1.43056 2.81944 1.29166 2.95832C1.15278 3.09722 1.08333 3.25 1.08333 3.41665V15.0458ZM8.66667 10.4583C9.57501 10.4583 10.3438 10.1437 10.9729 9.51457C11.6021 8.88541 11.9167 8.11666 11.9167 7.20832C11.9167 6.29998 11.6021 5.53123 10.9729 4.90206C10.3438 4.2729 9.57501 3.95832 8.66667 3.95832C7.75833 3.95832 6.98958 4.2729 6.36041 4.90206C5.73125 5.53123 5.41667 6.29998 5.41667 7.20832C5.41667 8.11666 5.73125 8.88541 6.36041 9.51457C6.98958 10.1437 7.75833 10.4583 8.66667 10.4583ZM2.04168 15.875H15.2917V15.6875C14.3389 14.7917 14.6639 13.059 13.5417 12.625C12.4194 12.191 9.8861 12.0833 8.66667 12.0833C7.475 12.0833 4.92083 12.1979 3.79167 12.625C2.66249 13.0521 3.00834 14.7639 2.04168 15.6458V15.875ZM8.66667 9.37498C8.07639 9.37498 7.56772 9.16144 7.14063 8.73435C6.71354 8.30727 6.5 7.79859 6.5 7.20832C6.5 6.61805 6.71354 6.10937 7.14063 5.68228C7.56772 5.25519 8.07639 5.04165 8.66667 5.04165C9.25694 5.04165 9.76562 5.25519 10.1927 5.68228C10.6198 6.10937 10.8333 6.61805 10.8333 7.20832C10.8333 7.79859 10.6198 8.30727 10.1927 8.73435C9.76562 9.16144 9.25694 9.37498 8.66667 9.37498Z" fill="white"/>
</svg>
