<svg width="40" height="40" viewBox="0 0 40 40" fill="none" xmlns="http://www.w3.org/2000/svg">
<g filter="url(#filter0_d_1_37)">
<mask id="mask0_1_37" style="mask-type:alpha" maskUnits="userSpaceOnUse" x="0" y="0" width="40" height="40">
<rect width="40" height="40" fill="#D9D9D9"/>
</mask>
<g mask="url(#mask0_1_37)">
<path d="M20 25.5278L27.3055 18.2222L25.3195 16.2778L20 21.5973L14.6805 16.2778L12.6945 18.2222L20 25.5278ZM20 36.6667C17.713 36.6667 15.5556 36.2292 13.5278 35.3542C11.5 34.4792 9.73149 33.287 8.22221 31.7778C6.71296 30.2685 5.52083 28.5 4.64583 26.4722C3.77083 24.4444 3.33333 22.287 3.33333 20C3.33333 17.6944 3.77083 15.5278 4.64583 13.5C5.52083 11.4722 6.71296 9.70833 8.22221 8.20833C9.73149 6.70833 11.5 5.52083 13.5278 4.64583C15.5556 3.77083 17.713 3.33333 20 3.33333C22.3056 3.33333 24.4722 3.77083 26.5 4.64583C28.5278 5.52083 30.2917 6.70833 31.7917 8.20833C33.2917 9.70833 34.4792 11.4722 35.3542 13.5C36.2292 15.5278 36.6667 17.6944 36.6667 20C36.6667 22.287 36.2292 24.4444 35.3542 26.4722C34.4792 28.5 33.2917 30.2685 31.7917 31.7778C30.2917 33.287 28.5278 34.4792 26.5 35.3542C24.4722 36.2292 22.3056 36.6667 20 36.6667Z" fill="white"/>
</g>
</g>
<defs>
<filter id="filter0_d_1_37" x="0.333332" y="0.333332" width="39.3333" height="39.3333" filterUnits="userSpaceOnUse" color-interpolation-filters="sRGB">
<feFlood flood-opacity="0" result="BackgroundImageFix"/>
<feColorMatrix in="SourceAlpha" type="matrix" values="0 0 0 0 0 0 0 0 0 0 0 0 0 0 0 0 0 0 127 0" result="hardAlpha"/>
<feOffset/>
<feGaussianBlur stdDeviation="1.5"/>
<feComposite in2="hardAlpha" operator="out"/>
<feColorMatrix type="matrix" values="0 0 0 0 0 0 0 0 0 0 0 0 0 0 0 0 0 0 0.4 0"/>
<feBlend mode="normal" in2="BackgroundImageFix" result="effect1_dropShadow_1_37"/>
<feBlend mode="normal" in="SourceGraphic" in2="effect1_dropShadow_1_37" result="shape"/>
</filter>
</defs>
</svg>
